<svg width="800" height="600" viewBox="0 0 800 600" fill="none" xmlns="http://www.w3.org/2000/svg">
  <!-- Background -->
  <rect width="800" height="600" fill="#FFFFFF"/>
  
  <!-- Subtle gradient overlays -->
  <defs>
    <radialGradient id="glowBlue" cx="30%" cy="40%" r="50%">
      <stop offset="0%" style="stop-color:rgb(59,130,246);stop-opacity:0.1" />
      <stop offset="100%" style="stop-color:rgb(59,130,246);stop-opacity:0" />
    </radialGradient>
    <radialGradient id="glowPurple" cx="70%" cy="60%" r="40%">
      <stop offset="0%" style="stop-color:rgb(168,85,247);stop-opacity:0.06" />
      <stop offset="100%" style="stop-color:rgb(168,85,247);stop-opacity:0" />
    </radialGradient>
    <linearGradient id="priceGradient" x1="0%" y1="100%" x2="0%" y2="0%">
      <stop offset="0%" style="stop-color:#3b82f6;stop-opacity:0.1" />
      <stop offset="100%" style="stop-color:#3b82f6;stop-opacity:0" />
    </linearGradient>
  </defs>
  
  <rect width="800" height="600" fill="url(#glowBlue)"/>
  <rect width="800" height="600" fill="url(#glowPurple)"/>
  
  <!-- Browser window mockup (Light Theme) -->
  <g transform="translate(60, 40)">
    <!-- Window frame -->
    <rect x="0" y="0" width="680" height="520" rx="12" fill="#FFFFFF" stroke="#E5E7EB" stroke-width="1"/>
    
    <!-- Title bar -->
    <rect x="0" y="0" width="680" height="40" rx="12" fill="#F9FAFB"/>
    <rect x="0" y="40" width="680" height="1" fill="#E5E7EB"/>
    
    <!-- Window controls -->
    <circle cx="20" cy="20" r="5" fill="#E5E7EB"/>
    <circle cx="40" cy="20" r="5" fill="#E5E7EB"/>
    <circle cx="60" cy="20" r="5" fill="#E5E7EB"/>
    
    <!-- URL bar -->
    <rect x="90" y="10" width="500" height="20" rx="10" fill="#FFFFFF" stroke="#E5E7EB" stroke-width="1"/>
    <text x="100" y="24" font-family="system-ui, -apple-system, sans-serif" font-size="10" fill="#9CA3AF">sneakerscope.app</text>
    
    <!-- Sidebar (Left) -->
    <g transform="translate(0, 41)">
      <rect x="0" y="0" width="160" height="479" rx="0" fill="#F9FAFB"/>
      <rect x="160" y="0" width="1" height="479" fill="#E5E7EB"/>
      
      <!-- Brand/Logo area -->
      <path d="M20 20L35 35L20 50L25 35L20 20Z" fill="#111827"/>
      <rect x="45" y="25" width="80" height="12" rx="4" fill="#111827"/>
      
      <!-- Nav items -->
      <g transform="translate(16, 60)">
        <rect x="0" y="0" width="128" height="32" rx="6" fill="#E5E7EB" fill-opacity="0.5"/>
        <rect x="10" y="10" width="12" height="12" rx="2" fill="#111827"/>
        <rect x="30" y="12" width="60" height="8" rx="2" fill="#111827"/>
        
        <rect x="10" y="42" width="12" height="12" rx="2" fill="#9CA3AF"/>
        <rect x="30" y="44" width="70" height="8" rx="2" fill="#9CA3AF"/>
        
        <rect x="10" y="74" width="12" height="12" rx="2" fill="#9CA3AF"/>
        <rect x="30" y="76" width="50" height="8" rx="2" fill="#9CA3AF"/>
        
        <rect x="10" y="106" width="12" height="12" rx="2" fill="#9CA3AF"/>
        <rect x="30" y="108" width="65" height="8" rx="2" fill="#9CA3AF"/>
      </g>
    </g>
    
    <!-- Main Content -->
    <g transform="translate(180, 60)">
      <!-- Search bar -->
      <rect x="0" y="0" width="300" height="32" rx="8" fill="#F3F4F6"/>
      <rect x="10" y="10" width="12" height="12" rx="6" stroke="#9CA3AF" stroke-width="1.5"/>
      <rect x="30" y="12" width="120" height="8" rx="2" fill="#9CA3AF" fill-opacity="0.5"/>
      
      <!-- Market Card -->
      <g transform="translate(0, 48)">
        <rect x="0" y="0" width="320" height="180" rx="12" fill="#FFFFFF" stroke="#E5E7EB" stroke-width="1"/>
        <text x="16" y="24" font-family="system-ui" font-size="14" font-weight="bold" fill="#111827">Aperçu du Marché</text>
        
        <!-- Empty chart placeholder style -->
        <!-- Market chart curve -->
        <path d="M16 140 L50 125 L90 135 L130 110 L170 115 L210 90 L250 105 L280 80 L304 85 L304 155 L16 155 Z" fill="url(#priceGradient)"/>
        <polyline points="16 140, 50 125, 90 135, 130 110, 170 115, 210 90, 250 105, 280 80, 304 85" stroke="#3b82f6" stroke-width="2" fill="none" stroke-linecap="round" stroke-linejoin="round"/>
        <circle cx="304" cy="85" r="3" fill="#3b82f6"/>
        
        <!-- Small positive indicator -->
        <text x="304" y="24" font-family="system-ui" font-size="12" font-weight="bold" fill="#10b981" text-anchor="end">+12.4%</text>
      </g>
      
      <!-- Trends Section -->
      <g transform="translate(0, 248)">
        <text x="0" y="0" font-family="system-ui" font-size="14" font-weight="bold" fill="#111827">⚡ Tendances</text>
        <g transform="translate(0, 16)">
          <rect x="0" y="0" width="70" height="90" rx="8" fill="#F3F4F6"/>
          <rect x="80" y="0" width="70" height="90" rx="8" fill="#F3F4F6"/>
          <rect x="160" y="0" width="70" height="90" rx="8" fill="#F3F4F6"/>
          <rect x="240" y="0" width="70" height="90" rx="8" fill="#F3F4F6"/>
        </g>
      </g>
    </g>
    
    <!-- Right Sidebar -->
    <g transform="translate(515, 60)">
      <!-- Portfolio Card -->
      <rect x="0" y="0" width="150" height="120" rx="12" fill="#FFFFFF" stroke="#E5E7EB" stroke-width="1"/>
      <text x="12" y="24" font-family="system-ui" font-size="11" font-weight="bold" fill="#111827">💼 Mon Portfolio</text>
      <text x="12" y="55" font-family="system-ui" font-size="20" font-weight="bold" fill="#111827">0€</text>
      <rect x="12" y="80" width="126" height="24" rx="6" fill="#E5E7EB"/>
      
      <!-- Recent Releases -->
      <g transform="translate(0, 136)">
        <rect x="0" y="0" width="150" height="80" rx="12" fill="#FFFFFF" stroke="#E5E7EB" stroke-width="1"/>
        <text x="12" y="20" font-family="system-ui" font-size="11" font-weight="bold" fill="#111827">🕒 Sorties récentes</text>
      </g>
      
      <!-- Sentiment Card -->
      <g transform="translate(0, 232)">
        <rect x="0" y="0" width="150" height="106" rx="12" fill="#FFFFFF" stroke="#E5E7EB" stroke-width="1"/>
        <text x="12" y="20" font-family="system-ui" font-size="11" font-weight="bold" fill="#111827">📈 Sentiment</text>
        <rect x="12" y="40" width="126" height="4" rx="2" fill="#E5E7EB"/>
        <circle cx="75" cy="42" r="4" fill="#3b82f6"/>
        <g transform="translate(12, 60)">
          <rect x="0" y="0" width="38" height="30" rx="4" fill="#ECFDF5"/>
          <rect x="44" y="0" width="38" height="30" rx="4" fill="#F9FAFB"/>
          <rect x="88" y="0" width="38" height="30" rx="4" fill="#FEF2F2"/>
        </g>
      </g>
    </g>
  </g>
  
  <!-- Decorative icon -->
  <text x="700" y="550" font-family="system-ui" font-size="60" fill="#E5E7EB" opacity="0.6">👟</text>
  
  <!-- Grain texture overlay -->
  <filter id="noise">
    <feTurbulence type="fractalNoise" baseFrequency="0.9" numOctaves="4" stitchTiles="stitch"/>
    <feColorMatrix type="saturate" values="0"/>
  </filter>
  <rect width="800" height="600" fill="white" opacity="0.02" filter="url(#noise)"/>
</svg>
